<svg width="30" height="31" viewBox="0 0 30 31" fill="none" xmlns="http://www.w3.org/2000/svg">
<g clip-path="url(#clip0_1875_4615)">
<path d="M28.6683 15.0528L30 12.6687L27.9993 10.8142L28.5317 8.1338L26.0579 6.99051L25.7388 4.27622L23.034 3.95597L21.8947 1.47351L19.2238 2.00774L17.3758 0L15 1.33641L12.6243 0L10.7762 2.00774L8.10526 1.47351L6.96599 3.95597L4.26122 4.27622L3.94209 6.99051L1.46834 8.1338L2.00069 10.8142L0 12.6687L1.33172 15.0528L0 17.437L2.00069 19.2914L1.46834 21.9718L3.94209 23.1151L4.26122 25.8295L6.96599 26.1497L8.10526 28.6321L10.7762 28.0979L12.6243 30.1056L15 28.7692L17.3758 30.1056L19.2238 28.0979L21.8947 28.6321L23.034 26.1497L25.7388 25.8295L26.0579 23.1151L28.5317 21.9718L28.2849 20.7293L27.4038 20.9055L27.5121 21.4505L25.2246 22.5076L24.9297 25.0174L22.4286 25.3135L21.3752 27.6089L18.9055 27.1149L17.1968 28.9714L15 27.7356L12.8032 28.9714L11.0945 27.1149L8.6248 27.6089L7.57135 25.3135L5.07035 25.0174L4.77542 22.5076L2.48795 21.4505L2.98023 18.972L1.13029 17.2573L2.36169 15.0528L1.13029 12.8483L2.98023 11.1336L2.48795 8.65516L4.77542 7.59801L5.07035 5.0882L7.57135 4.79224L8.6248 2.49671L11.0945 2.99072L12.8032 1.13427L15 2.37L17.1968 1.13427L18.9055 2.99072L21.3752 2.49671L22.4286 4.79224L24.9297 5.0882L25.2246 7.59801L27.5121 8.65516L27.0198 11.1336L28.8697 12.8483L27.6383 15.0528L28.8697 17.2573L27.0198 18.972L27.2263 20.012L28.1074 19.8358L27.9993 19.2914L30 17.437L28.6683 15.0528Z" fill="#A9885A"/>
<path d="M22.9835 7.55976C21.9713 6.47411 20.7741 5.61958 19.4253 5.0196C18.0287 4.39845 16.5399 4.0835 15.0003 4.0835C8.97293 4.0835 4.06934 9.00436 4.06934 15.0529C4.06934 17.683 5.01114 20.2268 6.7211 22.2157L7.40133 21.6267C5.83201 19.8015 4.96771 17.4669 4.96771 15.0529C4.96771 9.50156 9.46833 4.98509 15.0002 4.98509C16.4137 4.98509 17.78 5.27403 19.0612 5.84384C20.2992 6.39447 21.3981 7.17904 22.3274 8.17573L22.9835 7.55976Z" fill="#A9885A"/>
<path d="M25.9311 15.0528C25.9311 12.5683 25.1238 10.2251 23.5967 8.27661L22.8904 8.83398C24.2919 10.622 25.0327 12.7724 25.0327 15.0528C25.0327 20.6042 20.532 25.1206 15.0001 25.1206C12.3739 25.1206 9.89075 24.1092 8.00805 22.2727L7.38184 22.9192C9.4332 24.9202 12.1388 26.0222 15.0001 26.0222C21.0274 26.0222 25.9311 21.1013 25.9311 15.0528Z" fill="#A9885A"/>
<path d="M18.5938 9.7334H19.4922V10.635H18.5938V9.7334Z" fill="#A9885A"/>
<path d="M19.2744 13.2358L20.8349 9.50497L21.6633 9.85391L20.1028 13.5848L19.2744 13.2358Z" fill="#A9885A"/>
<path d="M21.2891 12.4382H22.1875V13.3398H21.2891V12.4382Z" fill="#A9885A"/>
<path d="M17.1649 19.5439V18.6423H14.6709V23.1672H15.5693V21.3H17.0501V20.3984H15.5693V19.5439H17.1649Z" fill="#A9885A"/>
<path d="M20.5184 19.5439V18.6423H18.0244V23.1672H18.9228V21.3H20.4036V20.3984H18.9228V19.5439H20.5184Z" fill="#A9885A"/>
<path d="M11.4658 23.1371C12.7043 23.1371 13.7119 22.126 13.7119 20.8831C13.7119 19.6403 12.7043 18.6292 11.4658 18.6292C10.2273 18.6292 9.21973 19.6403 9.21973 20.8831C9.21973 22.126 10.2273 23.1371 11.4658 23.1371ZM11.4658 19.5307C12.2089 19.5307 12.8135 20.1375 12.8135 20.8831C12.8135 21.6288 12.2089 22.2355 11.4658 22.2355C10.7227 22.2355 10.1182 21.6288 10.1182 20.8831C10.1182 20.1375 10.7227 19.5307 11.4658 19.5307Z" fill="#A9885A"/>
<path d="M17.548 11.1982C17.548 9.76396 16.3853 8.59717 14.9561 8.59717C13.527 8.59717 12.3643 9.76396 12.3643 11.1982V14.6369C12.3643 16.0711 13.527 17.2379 14.9561 17.2379C16.3853 17.2379 17.548 16.0711 17.548 14.6369V11.1982ZM16.6496 14.6369C16.6496 15.574 15.8899 16.3363 14.9561 16.3363C14.0224 16.3363 13.2627 15.5739 13.2627 14.6369V11.1982C13.2627 10.2611 14.0224 9.49877 14.9561 9.49877C15.89 9.49877 16.6496 10.2612 16.6496 11.1982V14.6369Z" fill="#A9885A"/>
<path d="M11.1901 17.0861V8.74878H8.70801V9.65038H10.2917V17.0861H11.1901Z" fill="#A9885A"/>
</g>
<defs>
<clipPath id="clip0_1875_4615">
<rect width="30" height="30.1056" fill="white"/>
</clipPath>
</defs>
</svg>
