<svg width="30" height="31" viewBox="0 0 30 31" fill="none" xmlns="http://www.w3.org/2000/svg">
<path d="M16.9217 24.5111C15.9303 24.5208 14.9479 24.3205 14.0389 23.9236C13.924 23.8766 13.8325 23.7859 13.7841 23.6714C13.7358 23.557 13.7347 23.4279 13.7811 23.3126C13.8279 23.1975 13.9183 23.1056 14.0325 23.0571C14.1467 23.0087 14.2754 23.0076 14.3905 23.0541C15.1847 23.3864 16.0377 23.5544 16.8983 23.5476C18.6127 23.5438 20.2559 22.8593 21.4683 21.6438C22.6806 20.4282 23.3633 18.7805 23.367 17.0614C23.3633 15.3423 22.6806 13.6947 21.4683 12.4791C20.2559 11.2636 18.6127 10.579 16.8983 10.5753C16.774 10.5753 16.6547 10.5257 16.5668 10.4376C16.4789 10.3494 16.4295 10.2299 16.4295 10.1053C16.4295 9.98062 16.4789 9.86105 16.5668 9.7729C16.6547 9.68475 16.774 9.63525 16.8983 9.63525C18.8612 9.6396 20.7425 10.4233 22.1305 11.8151C23.5184 13.2068 24.3003 15.0932 24.3045 17.0614C24.3094 18.0371 24.1222 19.0043 23.7535 19.9073C23.3848 20.8103 22.8419 21.6314 22.156 22.3236C21.4701 23.0157 20.6546 23.5652 19.7564 23.9405C18.8582 24.3161 17.8949 24.5099 16.9217 24.5111Z" fill="#A9885A"/>
<path d="M16.9219 18.7065C16.4932 18.7059 16.0822 18.5348 15.7791 18.2308C15.4759 17.9269 15.3053 17.5148 15.3047 17.085C15.3053 16.6551 15.4759 16.243 15.7791 15.939C16.0822 15.6351 16.4932 15.464 16.9219 15.4634C17.3506 15.464 17.7616 15.6351 18.0647 15.939C18.3679 16.243 18.5385 16.6551 18.5391 17.085C18.5385 17.5148 18.3679 17.9269 18.0647 18.2308C17.7616 18.5348 17.3506 18.7059 16.9219 18.7065ZM16.9219 16.4034C16.7416 16.4034 16.5687 16.4753 16.4413 16.6031C16.3138 16.7309 16.2422 16.9042 16.2422 17.085C16.2422 17.2657 16.3138 17.4391 16.4413 17.5668C16.5687 17.6947 16.7416 17.7665 16.9219 17.7665C17.1022 17.7665 17.275 17.6947 17.4025 17.5668C17.53 17.4391 17.6016 17.2657 17.6016 17.085C17.6016 16.9042 17.53 16.7309 17.4025 16.6031C17.275 16.4753 17.1022 16.4034 16.9219 16.4034Z" fill="#A9885A"/>
<path d="M12.3045 22.5841C12.1917 22.5851 12.0829 22.5431 11.9998 22.4666C11.9537 22.4259 11.9164 22.3761 11.8901 22.3204C11.8638 22.2648 11.8492 22.2043 11.847 22.1427C11.8448 22.0811 11.8551 22.0198 11.8774 21.9623C11.8996 21.9049 11.9333 21.8526 11.9763 21.8086L15.7732 17.602C15.8139 17.5558 15.8635 17.5184 15.919 17.492C15.9746 17.4657 16.0349 17.451 16.0963 17.4488C16.1577 17.4466 16.2189 17.457 16.2762 17.4793C16.3335 17.5016 16.3856 17.5353 16.4295 17.5785C16.4753 17.6195 16.5123 17.6693 16.5384 17.725C16.5645 17.7807 16.5791 17.841 16.5813 17.9025C16.5834 17.964 16.5732 18.0253 16.5512 18.0827C16.5291 18.1401 16.4957 18.1924 16.4529 18.2365L12.656 22.4196C12.6133 22.4715 12.5595 22.5132 12.4987 22.5416C12.4379 22.5701 12.3716 22.5846 12.3045 22.5841Z" fill="#A9885A"/>
<path d="M9.98437 7.49667H3.04687C2.92256 7.49667 2.80334 7.44717 2.71542 7.35902C2.62751 7.27089 2.57812 7.15132 2.57812 7.02665C2.57812 6.90201 2.62751 6.78243 2.71542 6.69428C2.80334 6.60613 2.92256 6.55664 3.04687 6.55664H9.98437C10.1087 6.55664 10.2279 6.60613 10.3158 6.69428C10.4037 6.78243 10.4531 6.90201 10.4531 7.02665C10.4531 7.15132 10.4037 7.27089 10.3158 7.35902C10.2279 7.44717 10.1087 7.49667 9.98437 7.49667Z" fill="#A9885A"/>
<path d="M8.4375 10.5987H5.36719C5.24288 10.5987 5.12365 10.5492 5.03573 10.4611C4.94782 10.3729 4.89844 10.2534 4.89844 10.1287C4.89844 10.004 4.94782 9.88453 5.03573 9.79638C5.12365 9.70823 5.24288 9.65869 5.36719 9.65869H8.4375C8.56184 9.65869 8.68106 9.70823 8.76895 9.79638C8.85687 9.88453 8.90625 10.004 8.90625 10.1287C8.90625 10.2534 8.85687 10.3729 8.76895 10.4611C8.68106 10.5492 8.56184 10.5987 8.4375 10.5987Z" fill="#A9885A"/>
<path d="M13.8515 10.5987H11.5312C11.4069 10.5987 11.2877 10.5492 11.1998 10.4611C11.1119 10.3729 11.0625 10.2534 11.0625 10.1287C11.0625 10.004 11.1119 9.88453 11.1998 9.79638C11.2877 9.70823 11.4069 9.65869 11.5312 9.65869H13.8515C13.9759 9.65869 14.0951 9.70823 14.183 9.79638C14.2709 9.88453 14.3203 10.004 14.3203 10.1287C14.3203 10.2534 14.2709 10.3729 14.183 10.4611C14.0951 10.5492 13.9759 10.5987 13.8515 10.5987Z" fill="#A9885A"/>
<path d="M19.2656 5.56971C19.1413 5.56971 19.0221 5.52015 18.9342 5.432C18.8463 5.34387 18.7969 5.22435 18.7969 5.0997V3.94812C18.7957 3.86749 18.7632 3.79053 18.7063 3.73349C18.6494 3.67645 18.5726 3.64388 18.4922 3.64266H15.3984C15.318 3.64388 15.2412 3.67645 15.1843 3.73349C15.1275 3.79053 15.095 3.86749 15.0938 3.94812V5.0997C15.0938 5.22435 15.0444 5.34387 14.9565 5.432C14.8686 5.52015 14.7493 5.56971 14.625 5.56971C14.5007 5.56971 14.3815 5.52015 14.2935 5.432C14.2056 5.34387 14.1562 5.22435 14.1562 5.0997V3.94812C14.1587 3.61855 14.2904 3.30317 14.5228 3.07012C14.7552 2.83708 15.0697 2.7051 15.3984 2.70264H18.4922C18.8209 2.7051 19.1354 2.83708 19.3678 3.07012C19.6003 3.30317 19.7319 3.61855 19.7344 3.94812V5.0997C19.7344 5.22435 19.685 5.34387 19.5971 5.432C19.5092 5.52015 19.39 5.56971 19.2656 5.56971Z" fill="#A9885A"/>
<path d="M16.9453 27.6133C14.1615 27.6102 11.4926 26.5001 9.52411 24.5262C7.55566 22.5524 6.44841 19.8763 6.44531 17.085C6.4503 15.689 6.72905 14.3076 7.26563 13.0194C7.31243 12.9042 7.40285 12.8124 7.51706 12.7639C7.63127 12.7155 7.75999 12.7144 7.875 12.7609C7.98984 12.8078 8.08146 12.8985 8.12977 13.013C8.17809 13.1275 8.1792 13.2566 8.13281 13.3719C7.65164 14.5421 7.40475 15.7958 7.40625 17.0615C7.40873 19.6037 8.41699 22.0411 10.2098 23.8386C12.0026 25.6364 14.4334 26.6472 16.9688 26.6498C19.5041 26.6472 21.9349 25.6364 23.7277 23.8386C25.5204 22.0411 26.5287 19.6037 26.5313 17.0615C26.5287 14.5193 25.5204 12.082 23.7277 10.2843C21.9349 8.48676 19.5041 7.47572 16.9688 7.47323H13.1016C12.9773 7.47323 12.858 7.42374 12.7701 7.33558C12.6822 7.24746 12.6328 7.12789 12.6328 7.00322C12.6328 6.87857 12.6822 6.75904 12.7701 6.67092C12.858 6.58277 12.9773 6.5332 13.1016 6.5332H16.9688C19.7526 6.53633 22.4215 7.64654 24.39 9.62031C26.3585 11.5941 27.4657 14.2702 27.4688 17.0615C27.4627 19.8581 26.352 22.5384 24.3797 24.5159C22.4075 26.4935 19.7344 27.6072 16.9453 27.6133Z" fill="#A9885A"/>
<path d="M25.8044 9.49439C25.6737 9.4938 25.548 9.44337 25.4529 9.35336C24.9281 8.7794 24.3471 8.25981 23.7185 7.80237C23.6674 7.76709 23.6238 7.72204 23.5903 7.66978C23.5568 7.61751 23.5338 7.55906 23.5228 7.49787C23.512 7.43667 23.5134 7.37393 23.5268 7.31325C23.5401 7.25257 23.5657 7.19513 23.6013 7.14433C23.6365 7.09314 23.6815 7.04943 23.7335 7.01575C23.7858 6.9821 23.8439 6.95916 23.9051 6.94824C23.966 6.93731 24.0286 6.93863 24.089 6.95214C24.1498 6.96563 24.2069 6.99101 24.2576 7.02682C24.9387 7.52501 25.567 8.09199 26.1326 8.71887C26.2153 8.80977 26.2594 8.92962 26.2549 9.05267C26.2507 9.17572 26.1982 9.29214 26.1091 9.37688C26.0262 9.45333 25.9172 9.4953 25.8044 9.49439Z" fill="#A9885A"/>
</svg>
