<svg width="30" height="30" viewBox="0 0 30 30" fill="none" xmlns="http://www.w3.org/2000/svg">
<path d="M26.069 14.3885L15.7991 4.11861C15.0885 3.40802 14.1052 3 13.0995 3H5.18185C3.97906 3 3 3.9785 3 5.18185V13.099C3 14.1185 3.39738 15.0774 4.11861 15.7991L14.3885 26.069C14.9894 26.6694 15.7884 27.0001 16.6364 27.0001C17.4844 27.0001 18.2834 26.6693 18.8843 26.069L26.069 18.8843C26.6698 18.2845 27.0001 17.486 27.0001 16.6365C27.0001 15.7869 26.6699 14.9883 26.069 14.3885ZM25.2977 18.113L18.113 25.2977C17.3226 26.0861 15.9504 26.0861 15.1599 25.2977L4.88991 15.0277C4.3743 14.5121 4.0909 13.8271 4.0909 13.0989V5.18185C4.0909 4.58048 4.57992 4.09095 5.1818 4.09095H13.0995C13.8175 4.09095 14.5207 4.38233 15.0277 4.88996L25.2977 15.1599C25.6919 15.554 25.9092 16.0782 25.9092 16.6365C25.9092 17.1947 25.6919 17.7188 25.2977 18.113Z" fill="#A9885A"/>
<path d="M15.8497 16.6205C15.9562 16.727 16.0957 16.7803 16.2353 16.7803C16.3749 16.7803 16.5144 16.727 16.621 16.6205C16.8341 16.4074 16.8341 16.0622 16.621 15.8492L15.8495 15.0777L16.621 14.306L17.778 15.4635C17.9911 15.6766 18.3362 15.6766 18.5493 15.4635C18.7623 15.2504 18.7623 14.9052 18.5493 14.6922L17.0066 13.1491C16.9043 13.0468 16.7659 12.9893 16.6209 12.9893C16.476 12.9893 16.3376 13.0468 16.2353 13.1491L13.15 16.2348C12.937 16.4479 12.937 16.7931 13.15 17.0061L14.6927 18.5488C14.7992 18.6553 14.9388 18.7086 15.0784 18.7086C15.2179 18.7086 15.3575 18.6553 15.464 18.5488C15.6771 18.3357 15.6771 17.9905 15.464 17.7775L14.3071 16.6205L15.0783 15.8491L15.8497 16.6205Z" fill="#A9885A"/>
<path d="M20.0915 16.2345C19.8784 16.0214 19.5333 16.0214 19.3202 16.2345L16.235 19.3197C16.0219 19.5328 16.0219 19.878 16.235 20.091L17.7777 21.6342C17.8842 21.7407 18.0238 21.794 18.1633 21.794C18.3029 21.794 18.4424 21.7407 18.549 21.6342C18.7621 21.4211 18.7621 21.0759 18.549 20.8629L17.392 19.7054L18.1633 18.9341L18.9346 19.7054C19.0411 19.8119 19.1807 19.8652 19.3203 19.8652C19.4598 19.8652 19.5994 19.8119 19.706 19.7054C19.919 19.4923 19.919 19.1472 19.706 18.9341L18.9347 18.1628L19.706 17.3915L20.8629 18.5485C21.076 18.7616 21.4212 18.7616 21.6342 18.5485C21.8473 18.3354 21.8473 17.9902 21.6342 17.7772L20.0915 16.2345Z" fill="#A9885A"/>
<path d="M10.4491 10.4493C10.6622 10.2362 10.6622 9.89103 10.4491 9.67799L9.67778 8.90629L10.4491 8.13484L11.606 9.29181C11.8191 9.50489 12.1643 9.50489 12.3773 9.29181C12.5904 9.07872 12.5904 8.73355 12.3773 8.52051L10.8347 6.97787C10.6301 6.77333 10.2679 6.77333 10.0634 6.97787L8.52158 8.51995C8.52158 8.51995 8.52107 8.52021 8.52076 8.52046C8.52051 8.52072 8.52051 8.52097 8.52051 8.52097L6.97817 10.0636C6.76509 10.2767 6.76509 10.6219 6.97817 10.8349C7.08469 10.9414 7.22429 10.9947 7.36385 10.9947C7.5034 10.9947 7.64295 10.9414 7.74952 10.8349L8.90654 9.67768L9.67778 10.4493C9.7843 10.5558 9.9239 10.6091 10.0635 10.6091C10.203 10.6091 10.3425 10.5558 10.4491 10.4493Z" fill="#A9885A"/>
<path d="M13.6246 13.6256C14.0284 13.6043 14.4044 13.4365 14.6921 13.1489C15.3302 12.5107 15.3302 11.4731 14.6921 10.8349L13.9208 10.0636C13.7077 9.85054 13.3625 9.85054 13.1495 10.0636L11.6207 11.5918C11.6154 11.5966 11.6101 11.6015 11.6058 11.6062C11.6005 11.611 11.5962 11.6158 11.5919 11.6211L10.0631 13.1489C9.85005 13.3619 9.85005 13.7071 10.0631 13.9201C10.2762 14.1332 10.6214 14.1332 10.8344 13.9201L11.9914 12.7632L12.3781 13.1483C12.5902 13.3614 12.5902 13.7076 12.3781 13.9201L11.6058 14.692C11.3927 14.9045 11.3927 15.2503 11.6058 15.4633C11.7123 15.5698 11.8519 15.6231 11.9914 15.6231C12.131 15.6231 12.2706 15.5698 12.3771 15.4633L13.1495 14.6914C13.4445 14.3958 13.6033 14.0139 13.6246 13.6256ZM13.5351 11.2205L13.9208 11.6062C14.1339 11.8187 14.1339 12.165 13.9208 12.3775C13.8174 12.4803 13.6811 12.5373 13.5351 12.5373H13.534C13.3892 12.5373 13.2528 12.4809 13.1494 12.377L12.7638 11.9919L13.5351 11.2205Z" fill="#A9885A"/>
</svg>
