<svg width="30" height="30" viewBox="0 0 30 30" fill="none" xmlns="http://www.w3.org/2000/svg">
<path d="M14.7904 28.5443C14.8555 28.5768 14.9273 28.5938 15.0001 28.5938C15.0729 28.5938 15.1447 28.5768 15.2098 28.5443C18.1117 27.1056 20.5525 24.8826 22.2553 22.1274C23.9581 19.3721 24.8549 16.1948 24.8439 12.9559V6.5625C24.8439 6.43818 24.7945 6.31895 24.7066 6.23104C24.6186 6.14314 24.4994 6.09375 24.3751 6.09375C23.2566 6.09251 22.1843 5.64764 21.3934 4.85674C20.6025 4.06584 20.1576 2.9935 20.1564 1.875C20.1564 1.75068 20.107 1.63145 20.0191 1.54354C19.9311 1.45564 19.8119 1.40625 19.6876 1.40625H10.3126C10.1883 1.40625 10.0691 1.45564 9.98114 1.54354C9.89324 1.63145 9.84385 1.75068 9.84385 1.875C9.84261 2.9935 9.39774 4.06584 8.60684 4.85674C7.81594 5.64764 6.7436 6.09251 5.6251 6.09375C5.50078 6.09375 5.38155 6.14314 5.29364 6.23104C5.20574 6.31895 5.15635 6.43818 5.15635 6.5625V12.9559C5.14533 16.1948 6.04208 19.3721 7.7449 22.1274C9.44773 24.8826 11.8885 27.1056 14.7904 28.5443ZM6.09385 7.0102C7.29392 6.89901 8.41732 6.37165 9.26953 5.51944C10.1217 4.66722 10.6491 3.54382 10.7603 2.34375H19.24C19.3512 3.54381 19.8785 4.6672 20.7307 5.51941C21.5829 6.37162 22.7063 6.89899 23.9064 7.0102V12.9559C23.9166 15.9806 23.0902 18.9492 21.5184 21.5335C19.9466 24.1178 17.6907 26.217 15.0001 27.599C12.3095 26.217 10.0536 24.1178 8.48183 21.5335C6.91002 18.9492 6.08356 15.9806 6.09385 12.9559V7.0102Z" fill="#A9885A"/>
<path d="M14.765 26.4015C14.8365 26.4429 14.9177 26.4647 15.0003 26.4647C15.083 26.4647 15.1641 26.4429 15.2356 26.4015C17.6003 25.0464 19.5625 23.0874 20.9213 20.7249C22.2801 18.3624 22.9868 15.6812 22.9691 12.9559V8.16469C22.9691 8.06379 22.9365 7.96559 22.8762 7.88469C22.8159 7.80378 22.7311 7.74449 22.6344 7.71562C21.6639 7.42735 20.7807 6.90144 20.0648 6.18554C19.3489 5.46965 18.823 4.58641 18.5347 3.61589C18.5059 3.51916 18.4467 3.43431 18.3657 3.37401C18.2848 3.3137 18.1866 3.28116 18.0856 3.28125H11.915C11.8141 3.28116 11.7158 3.3137 11.6349 3.37401C11.554 3.43431 11.4947 3.51916 11.466 3.61589C11.1777 4.58641 10.6518 5.46965 9.93587 6.18554C9.21997 6.90144 8.33674 7.42735 7.36622 7.71562C7.26954 7.74449 7.18475 7.80378 7.12446 7.88469C7.06417 7.96559 7.0316 8.06379 7.03158 8.16469V12.9559C7.01383 15.6812 7.72054 18.3624 9.07936 20.7249C10.4382 23.0874 12.4004 25.0464 14.765 26.4015ZM7.96908 8.50481C8.95852 8.15636 9.85721 7.59041 10.599 6.84865C11.3407 6.10689 11.9067 5.2082 12.2551 4.21875H17.7455C18.094 5.2082 18.6599 6.10689 19.4017 6.84865C20.1434 7.59041 21.0421 8.15636 22.0316 8.50481V12.9559C22.0483 15.4704 21.4085 17.9458 20.1753 20.1373C18.9421 22.3287 17.1584 24.1604 15.0003 25.4512C12.8423 24.1604 11.0585 22.3287 9.82536 20.1373C8.5922 17.9458 7.95235 15.4704 7.96908 12.9559V8.50481Z" fill="#A9885A"/>
<path d="M18.9417 13.433L17.6917 12.183C17.5745 12.0658 17.4156 12 17.2499 12C17.0841 12 16.9252 12.0658 16.808 12.183L14.1249 14.8661L13.3167 14.058C13.1995 13.9408 13.0406 13.875 12.8749 13.875C12.7091 13.875 12.5502 13.9408 12.433 14.058L11.183 15.308C11.0658 15.4252 11 15.5841 11 15.7499C11 15.9156 11.0658 16.0745 11.183 16.1917L13.683 18.6917C13.8002 18.8089 13.9591 18.8747 14.1249 18.8747C14.2906 18.8747 14.4495 18.8089 14.5667 18.6917L18.9417 14.3167C19.0589 14.1995 19.1247 14.0406 19.1247 13.8749C19.1247 13.7091 19.0589 13.5502 18.9417 13.433ZM14.1249 17.3661L12.5086 15.7499L12.8749 15.3836L13.683 16.1917C13.8002 16.3089 13.9591 16.3747 14.1249 16.3747C14.2906 16.3747 14.4495 16.3089 14.5667 16.1917L17.2499 13.5086L17.6161 13.8749L14.1249 17.3661Z" fill="#A9885A"/>
</svg>
