<svg width="30" height="30" viewBox="0 0 30 30" fill="none" xmlns="http://www.w3.org/2000/svg">
<path d="M2.07692 15C2.07692 7.87615 7.87615 2.07692 15 2.07692V1C7.27846 1 1 7.27846 1 15H2.07692Z" fill="#D60010"/>
<path d="M29 15H27.9231C27.9231 22.1238 22.1238 27.9231 15 27.9231V29C22.7215 29 29 22.7215 29 15Z" fill="#D60010"/>
<path d="M16 1H17V2H16V1Z" fill="#D60010"/>
<path d="M13 28H14V29H13V28Z" fill="#D60010"/>
<path d="M18.0793 12L13.7448 16.71L11.8406 15.055L11 15.785L13.3731 17.85C13.4875 17.945 13.6362 18 13.7906 18H13.8249C13.9907 17.99 14.1508 17.92 14.2538 17.805L19 12.645L18.0736 12H18.0793Z" fill="#D60010"/>
<path d="M26 15C26 8.9335 21.0665 4 15 4C8.9335 4 4 8.9335 4 15C4 21.0665 8.9335 26 15 26C21.0665 26 26 21.0665 26 15ZM8.4 15C8.4 11.359 11.359 8.4 15 8.4C18.641 8.4 21.6 11.359 21.6 15C21.6 18.641 18.641 21.6 15 21.6C11.359 21.6 8.4 18.641 8.4 15Z" fill="#D60010"/>
</svg>
