<svg width="30" height="30" viewBox="0 0 30 30" fill="none" xmlns="http://www.w3.org/2000/svg">
<g clip-path="url(#clip0_5_2)">
<path d="M1.3355 5.61216C1.59976 6.65689 2.14181 7.61197 2.90359 8.37369L3.60103 9.06216L9.07158 3.59197L8.37419 2.90343C7.61183 2.14171 6.65728 1.59972 5.61249 1.33547L0.36513 0.00890264C0.264934 -0.0162927 0.15888 0.0130042 0.0856376 0.0856605C0.0129813 0.158903 -0.0163156 0.264957 0.00887975 0.365153L1.3355 5.61216Z" fill="#D60010"/>
<path d="M7.51396 12.9247L12.984 7.45494L10.3225 4.82701L4.85205 10.2971L7.51396 12.9247Z" fill="#D60010"/>
<path d="M17.0726 22.5441L22.5418 17.0749L25.8201 20.3532L20.3509 25.8224L17.0726 22.5441Z" fill="#D60010"/>
<path d="M27.0688 21.5969L21.5983 27.067L23.3986 28.8674C24.1293 29.5975 25.1009 30.0001 26.134 30.0001C27.167 30.0001 28.1386 29.5975 28.8693 28.8674C30.377 27.3592 30.377 24.9053 28.8693 23.3972L27.0688 21.5969Z" fill="#D60010"/>
<path d="M13.5325 16.1067C13.8758 15.7635 14.4323 15.7635 14.7755 16.1067L17.803 19.1341L19.1354 17.8018L17.4072 16.0738C17.0639 15.7307 17.0639 15.1742 17.4072 14.8309C17.7504 14.4877 18.307 14.4876 18.6502 14.8309L20.3784 16.5589L21.7342 15.2031L18.7066 12.1758C18.3633 11.8326 18.3633 11.2761 18.7066 10.9328C19.0499 10.5896 19.6064 10.5895 19.9496 10.9328L22.9772 13.9603L24.333 12.6045L22.6049 10.8765C22.2616 10.5333 22.2616 9.97687 22.6049 9.63357C22.9481 9.29039 23.5046 9.29027 23.8479 9.63357L25.5761 11.3616L26.9319 10.0058L23.9043 6.9784C23.561 6.63521 23.561 6.07869 23.9043 5.73545C24.2476 5.39221 24.8041 5.39221 25.1473 5.73545L28.1749 8.76287L29.4182 7.51758C29.7934 7.14246 29.9999 6.64365 29.9999 6.11314C29.9999 5.58264 29.7933 5.08395 29.4182 4.70877L25.2908 0.581777C24.9156 0.206602 24.4169 0 23.8864 0C23.3559 0 22.8571 0.206543 22.4819 0.581719L0.581719 22.4824C0.206602 22.8575 0 23.3563 0 23.8867C0 24.4172 0.206602 24.9159 0.581719 25.2911L4.70918 29.4182C5.0843 29.7933 5.58305 30 6.11361 30C6.64418 30 7.14293 29.7934 7.51805 29.4183L8.7634 28.1731L7.03529 26.4451C6.69205 26.1019 6.69205 25.5454 7.03529 25.2022C7.37854 24.859 7.93506 24.859 8.2783 25.2022L10.0064 26.9302L11.3622 25.5744L8.33467 22.5471C7.99143 22.2039 7.99143 21.6474 8.33467 21.3042C8.67791 20.961 9.23443 20.961 9.57768 21.3042L12.6052 24.3315L13.9611 22.9757L12.2329 21.2477C11.8897 20.9046 11.8897 20.3481 12.2329 20.0048C12.5762 19.6616 13.1327 19.6615 13.476 20.0048L15.2041 21.7328L16.5599 20.377L13.5324 17.3497C13.1892 17.0065 13.1892 16.45 13.5325 16.1067Z" fill="#D60010"/>
</g>
<defs>
<clipPath id="clip0_5_2">
<rect width="30" height="30" fill="white"/>
</clipPath>
</defs>
</svg>
