<svg width="30" height="30" viewBox="0 0 30 30" fill="none" xmlns="http://www.w3.org/2000/svg">
<g clip-path="url(#clip0_5_15)">
<path d="M5.87996 17.8371H11.4629V16.659C11.4629 14.6485 9.83299 13.0186 7.82242 13.0186H3.64046C1.62989 13.0186 0 14.6485 0 16.659V22.3434H5.87996V17.8371Z" fill="#D60010"/>
<path d="M5.73145 11.1782C8.05884 11.1782 9.94556 9.29147 9.94556 6.96408C9.94556 4.63669 8.05884 2.74997 5.73145 2.74997C3.40406 2.74997 1.51733 4.63669 1.51733 6.96408C1.51733 9.29147 3.40406 11.1782 5.73145 11.1782Z" fill="#D60010"/>
<path d="M7.63696 19.5941H10.658V28.8207H7.63696V19.5941Z" fill="#D60010"/>
<path d="M21.4026 18.5549H20.1908V15.7014C20.1908 14.0461 18.8489 12.7042 17.1935 12.7042C16.5093 12.7042 15.9547 13.2589 15.9547 13.9431V16.885L14.5519 18.5549L12.4149 19.5941V28.8207L14.3836 29.9921H21.4026C23.0408 29.9921 24.3688 28.664 24.3688 27.0258V21.5211C24.3688 19.8829 23.0408 18.5549 21.4026 18.5549Z" fill="#D60010"/>
<path d="M14.1168 3.9621C15.7043 4.97652 17.0566 6.32881 18.0711 7.9163C19.0855 6.32875 20.4377 4.97652 22.0253 3.9621C20.4378 2.94768 19.0855 1.59545 18.0711 0.00790405C17.0566 1.59545 15.7043 2.94768 14.1168 3.9621Z" fill="#D60010"/>
<path d="M30 10.2998C28.4125 9.28534 27.0602 7.93305 26.0458 6.34557C25.0313 7.93311 23.679 9.2854 22.0916 10.2998C23.679 11.3142 25.0313 12.6664 26.0458 14.254C27.0602 12.6664 28.4125 11.3142 30 10.2998Z" fill="#D60010"/>
</g>
<defs>
<clipPath id="clip0_5_15">
<rect width="30" height="30" fill="white"/>
</clipPath>
</defs>
</svg>
