<svg width="30" height="30" viewBox="0 0 30 30" fill="none" xmlns="http://www.w3.org/2000/svg">
<g clip-path="url(#clip0_5_42)">
<path d="M24.7742 16.1337H21.2117V17.9542C21.6138 18.035 21.9166 18.39 21.9166 18.8157C21.9166 19.2416 21.6138 19.5966 21.2117 19.6772V23.5398H24.7742V16.1337Z" fill="#D60010"/>
<path d="M9.55127 14.222C9.7932 14.3788 9.95341 14.6503 9.95341 14.9597C9.95341 15.2692 9.7932 15.5408 9.55127 15.6974V17.8592L10.8966 17.5637V12.4143L9.55127 12.1188V14.222Z" fill="#D60010"/>
<path d="M7.79338 15.6974C7.55168 15.5408 7.39146 15.2692 7.39146 14.9597C7.39146 14.6505 7.55168 14.3788 7.79338 14.2223V11.7327L6.44824 11.4372V18.541L7.79338 18.2455V15.6974Z" fill="#D60010"/>
<path d="M1.09749 2.66442C0.834045 2.59667 0.55481 2.65481 0.340118 2.8212C0.125656 2.98783 0 3.24418 0 3.51563V26.4624C0 26.7341 0.125656 26.9904 0.340118 27.1568C0.495987 27.2779 0.685959 27.3413 0.878906 27.3413C0.95192 27.3413 1.02516 27.3324 1.09749 27.3138L14.9249 23.7653V6.213L1.09749 2.66442ZM11.9641 19.129L5.75798 20.4923C5.6955 20.506 5.6321 20.5129 5.56938 20.5129C5.37071 20.5129 5.17616 20.4456 5.01846 20.3188C4.8111 20.1519 4.69048 19.9001 4.69048 19.6339V10.3443C4.69048 10.0781 4.8111 9.82613 5.01846 9.65928C5.22606 9.49242 5.49843 9.42879 5.75798 9.48578L11.9641 10.849C12.3672 10.9376 12.6544 11.2946 12.6544 11.7075V18.2707C12.6544 18.6834 12.3672 19.0407 11.9641 19.129Z" fill="#D60010"/>
<path d="M29.1211 6.43845H16.6827V23.5398H19.4538V15.2547C19.4538 14.7695 19.8475 14.3758 20.3327 14.3758H25.6531C26.1385 14.3758 26.532 14.7695 26.532 15.2547V23.5398H29.1211C29.6066 23.5398 30 23.1461 30 22.6609V7.31735C30 6.83189 29.6066 6.43845 29.1211 6.43845Z" fill="#D60010"/>
</g>
<defs>
<clipPath id="clip0_5_42">
<rect width="30" height="30" fill="white"/>
</clipPath>
</defs>
</svg>
