<svg width="30" height="30" viewBox="0 0 30 30" fill="none" xmlns="http://www.w3.org/2000/svg">
<g clip-path="url(#clip0_5_48)">
<path d="M9.14064 26.1094C8.95314 25.9688 8.71877 25.8281 8.53127 25.7344C8.57814 25.3594 8.53127 24.9375 8.43752 24.5156C8.25002 23.8125 7.87502 23.1562 7.35939 22.5469C6.89064 22.9219 6.65627 23.5781 6.75002 24.2812C6.42189 23.9531 6.09377 23.625 5.81252 23.2969C6.00002 22.9688 6.09377 22.5469 6.09377 22.125C6.14064 21.4219 6.00002 20.7188 5.67189 20.0156C5.06252 20.25 4.68752 20.8594 4.59377 21.5625C4.35939 21.1875 4.17189 20.7656 3.98439 20.3906C4.26564 20.1094 4.50002 19.7344 4.64064 19.3125C4.87502 18.6563 4.92189 17.9531 4.78127 17.2031C4.12502 17.2969 3.56252 17.7656 3.28127 18.4688C3.14064 18 3.04689 17.5781 3.00002 17.1094C3.37502 16.9219 3.70314 16.5937 3.93752 16.2187C4.31252 15.6562 4.59377 14.9531 4.64064 14.2031C3.93752 14.1094 3.23439 14.4844 2.81252 15.1406C2.81252 14.6719 2.85939 14.1563 2.90627 13.6875C3.32814 13.5938 3.75002 13.3594 4.12502 13.0781C4.64064 12.6562 5.06252 12.0469 5.34377 11.3438C4.68752 11.0625 3.89064 11.25 3.28127 11.8125C3.42189 11.3438 3.56252 10.8281 3.75002 10.3594C4.21877 10.4062 4.68752 10.2656 5.10939 10.0781C5.71877 9.79687 6.28127 9.32812 6.75002 8.67187C6.18752 8.20312 5.34377 8.20312 4.59377 8.625C4.87502 8.15625 5.15627 7.73438 5.48439 7.3125C5.90627 7.5 6.42189 7.5 6.93752 7.40625C7.64064 7.26562 8.34377 6.98438 9.00002 6.46875C8.57814 5.85938 7.73439 5.625 6.84377 5.85937C7.50002 5.25 8.20314 4.6875 9.04689 4.21875C9.28127 4.07812 9.37502 3.79687 9.23439 3.5625C9.09377 3.32812 8.76564 3.23437 8.53127 3.375C7.64064 3.89062 6.84377 4.5 6.14064 5.15625C6.51564 4.21875 6.56252 3.375 6.14064 2.71875C5.29689 3.28125 4.68752 4.21875 4.54689 5.01562C4.40627 5.625 4.50002 6.14062 4.78127 6.5625C4.40627 7.03125 4.07814 7.54688 3.79689 8.01563C3.89064 7.03125 3.65627 6.1875 3.09377 5.71875C2.43752 6.60937 2.15627 7.64062 2.25002 8.4375C2.29689 9.04687 2.53127 9.51562 2.90627 9.84375C2.67189 10.4062 2.48439 10.9219 2.34377 11.4844C2.15627 10.5469 1.73439 9.79688 1.03127 9.46875C0.656268 10.5 0.656268 11.5313 0.937518 12.2813C1.17189 12.8438 1.50002 13.2188 1.96877 13.4531C1.87502 14.0156 1.87502 14.5781 1.87502 15.1406C1.45314 14.2969 0.843768 13.7344 0.0937683 13.6406C1.83173e-05 14.7187 0.281268 15.7031 0.750018 16.3594C1.07814 16.8281 1.54689 17.1094 2.01564 17.2031C2.06252 17.7656 2.20314 18.2812 2.29689 18.7969C1.68752 18.1406 0.984393 17.7656 0.234393 17.8594C0.421893 18.9375 0.937518 19.8281 1.59377 20.2969C2.01564 20.6719 2.53127 20.8125 2.95314 20.7656C3.14064 21.2344 3.37502 21.75 3.60939 22.1719C2.81252 21.8438 2.06252 21.6562 1.40627 21.9375C1.87502 22.9219 2.62502 23.6719 3.37502 24C3.89064 24.2344 4.35939 24.2344 4.78127 24.1406C5.10939 24.5625 5.43752 24.9375 5.81252 25.3125C5.01564 25.125 4.31252 25.1719 3.79689 25.5937C4.54689 26.4375 5.53127 26.9531 6.37502 27.0938C6.89064 27.1875 7.35939 27.0938 7.73439 26.9063C7.92189 27.0469 8.15627 27.1875 8.34377 27.3281C8.71877 27.5625 9.18752 27.4219 9.37502 27.0469C9.56252 26.7188 9.46877 26.2969 9.14064 26.1094Z" fill="#D60010"/>
<path d="M27.7969 18.7969C27.9375 18.2812 28.0313 17.7188 28.0782 17.2031C28.5469 17.1094 28.9688 16.8281 29.3438 16.3594C29.8125 15.7031 30.0938 14.7188 30 13.6406C29.25 13.7344 28.6407 14.3437 28.2188 15.1406C28.2188 14.5781 28.1719 14.0156 28.125 13.4531C28.5469 13.2656 28.9219 12.8438 29.1563 12.2813C29.4375 11.5313 29.4844 10.5 29.0625 9.46875C28.3594 9.79688 27.9375 10.5469 27.75 11.4844C27.6094 10.9219 27.4219 10.3594 27.1875 9.84375C27.5625 9.51563 27.7969 9.04688 27.8438 8.4375C27.9375 7.64063 27.6563 6.60937 27 5.71875C26.3907 6.1875 26.2032 7.07813 26.2969 8.01563C25.9219 7.5 25.5938 7.03125 25.2188 6.5625C25.5 6.1875 25.5938 5.625 25.4532 5.01562C25.3125 4.21875 24.7032 3.28125 23.7657 2.53125C23.3438 3.14062 23.3907 4.03125 23.7657 4.96875C23.0625 4.3125 22.2657 3.70313 21.375 3.1875C21.1407 3.04688 20.8125 3.14062 20.6719 3.375C20.5313 3.60937 20.625 3.89063 20.8594 4.03125C21.6563 4.5 22.4063 5.0625 23.0625 5.67188C22.1719 5.4375 21.3282 5.67187 20.9063 6.28125C21.5625 6.79687 22.2657 7.07812 22.9688 7.21875C23.4844 7.3125 24 7.3125 24.4219 7.125C24.75 7.54687 25.0782 8.01563 25.3125 8.4375C24.5625 8.01563 23.7188 8.01563 23.1563 8.48438C23.625 9.09375 24.1875 9.60938 24.7969 9.89063C25.2657 10.125 25.7344 10.2188 26.1563 10.1719C26.3438 10.6406 26.4844 11.1094 26.625 11.625C26.0157 11.0625 25.2188 10.875 24.5625 11.1562C24.8438 11.8594 25.2657 12.4688 25.7813 12.8906C26.1563 13.2188 26.5782 13.4062 27 13.5C27.0469 13.9687 27.0938 14.4844 27.0938 14.9531C26.6719 14.2969 25.9688 13.9219 25.2657 14.0156C25.3594 14.7656 25.5938 15.4688 25.9688 16.0313C26.2032 16.4063 26.5313 16.7344 26.9063 16.9219C26.8125 17.3906 26.7188 17.8125 26.625 18.2812C26.3438 17.5781 25.8282 17.0625 25.125 17.0156C24.9844 17.7656 25.0782 18.5156 25.2657 19.125C25.4063 19.5469 25.5938 19.9219 25.9219 20.2031C25.7344 20.625 25.5469 21 25.3125 21.375C25.2188 20.6719 24.8438 20.0625 24.2344 19.8281C23.9063 20.5312 23.7657 21.2344 23.8125 21.9375C23.8125 22.3594 23.9063 22.7812 24.0938 23.1094C23.8125 23.4375 23.4844 23.7656 23.1563 24.0938C23.25 23.3906 23.0625 22.7344 22.5469 22.3594C22.0313 22.9687 21.6563 23.625 21.4688 24.3281C21.375 24.75 21.3282 25.1719 21.375 25.5469C21.1875 25.6875 21 25.8281 20.7657 25.9219C20.4375 26.1094 20.3438 26.5312 20.4844 26.8594C20.6719 27.2344 21.1407 27.375 21.5157 27.1406C21.75 27 21.9375 26.8594 22.125 26.7187C22.5 26.9062 22.9688 27 23.4844 26.9062C24.3282 26.7656 25.3125 26.25 26.0625 25.4062C25.5469 24.9844 24.8438 24.9375 24.0469 25.125C24.4219 24.75 24.75 24.375 25.0782 23.9531C25.5 24.0469 25.9688 24 26.4844 23.8125C27.2344 23.4844 27.9844 22.7813 28.4532 21.75C27.7969 21.4687 27.0469 21.6562 26.3438 22.0781C26.5782 21.6094 26.8125 21.1406 27 20.6719C27.4688 20.6719 27.9375 20.5312 28.3594 20.2031C28.9688 19.6875 29.5313 18.8437 29.7188 17.7656C29.1094 17.7656 28.4063 18.1875 27.7969 18.7969Z" fill="#D60010"/>
<path d="M20.7656 23.1094L19.7813 17.4375L23.9063 13.4063C24.0469 13.2656 24.0938 13.0781 24.0469 12.9375C24 12.75 23.8594 12.6562 23.6719 12.6094L17.9531 11.7656L15.4219 6.60938C15.3281 6.46875 15.1875 6.32812 15 6.32812C14.8125 6.32812 14.6719 6.42188 14.5781 6.60938L12.0469 11.7656L6.32813 12.6094C6.14063 12.6562 6 12.75 5.95312 12.9375C5.90625 13.125 5.95313 13.3125 6.09375 13.4063L10.2187 17.4375L9.23438 23.1094C9.1875 23.2969 9.28125 23.4844 9.42188 23.5781C9.5625 23.6719 9.75 23.7188 9.9375 23.625L15 20.9062L20.1094 23.5781C20.1563 23.625 20.25 23.625 20.3438 23.625C20.4375 23.625 20.5312 23.5781 20.625 23.5313C20.7187 23.4375 20.8125 23.2969 20.7656 23.1094Z" fill="#D60010"/>
</g>
<defs>
<clipPath id="clip0_5_48">
<rect width="30" height="30" fill="white"/>
</clipPath>
</defs>
</svg>
